<?xml version="1.0" standalone="no"?>
<!DOCTYPE svg PUBLIC "-//W3C//DTD SVG 20010904//EN"
 "http://www.w3.org/TR/2001/REC-SVG-20010904/DTD/svg10.dtd">
<svg version="1.0" xmlns="http://www.w3.org/2000/svg"
 width="512.000000pt" height="512.000000pt" viewBox="0 0 512.000000 512.000000"
 preserveAspectRatio="xMidYMid meet">
<metadata>
Created by potrace 1.11, written by Peter Selinger 2001-2013
</metadata>
<g transform="translate(0.000000,512.000000) scale(0.100000,-0.100000)"
fill="#000000" stroke="none">
<path d="M663 4303 c-80 -28 -162 -123 -177 -206 -3 -12 -5 -615 -5 -1339 l-1
-1318 -172 0 c-237 -1 -222 14 -226 -215 -4 -221 6 -264 84 -342 91 -91 -141
-84 2414 -81 l2255 3 49 25 c61 31 119 97 139 157 16 48 24 345 11 397 -12 48
-46 56 -229 56 l-165 0 -1 1318 c0 724 -2 1327 -5 1339 -14 77 -87 167 -163
201 -33 16 -190 17 -1901 18 -1608 1 -1871 -1 -1907 -13z m3779 -181 l33 -32
3 -1325 2 -1325 -1920 0 -1920 0 0 1315 c0 1034 3 1320 13 1338 12 23 40 47
67 59 8 4 842 6 1852 5 l1838 -2 32 -33z m-2360 -2942 c2 -79 7 -103 21 -117
16 -17 50 -18 440 -21 232 -1 432 0 444 3 37 9 53 54 53 150 l0 85 921 0 921
0 -4 -122 c-3 -139 -15 -167 -78 -188 -26 -8 -628 -10 -2262 -8 l-2228 3 -32
33 -33 32 -3 125 -4 125 920 0 920 0 4 -100z m798 60 l0 -40 -320 0 -320 0 0
40 0 40 320 0 320 0 0 -40z"/>
<path d="M750 4060 c-11 -11 -22 -30 -25 -42 -3 -13 -4 -571 -3 -1240 3 -1153
4 -1218 21 -1235 17 -17 104 -18 1800 -21 980 -1 1792 0 1804 3 55 13 53 -38
53 1272 0 664 -3 1218 -6 1231 -15 55 85 52 -1844 52 -1759 0 -1780 0 -1800
-20z m3490 -1260 l0 -1120 -1680 0 -1680 0 0 1120 0 1120 1680 0 1680 0 0
-1120z"/>
<path d="M1952 3422 c-12 -12 -130 -166 -264 -344 -209 -279 -242 -328 -242
-358 0 -30 35 -81 252 -372 181 -240 260 -338 278 -342 59 -15 111 30 100 85
-3 16 -107 164 -231 329 l-225 300 231 307 c217 289 230 310 225 342 -7 44
-23 60 -68 67 -28 5 -40 2 -56 -14z"/>
<path d="M3085 3431 c-29 -12 -49 -54 -41 -86 4 -14 108 -161 231 -326 l225
-299 -231 -307 c-217 -289 -230 -310 -225 -342 7 -44 23 -60 68 -67 28 -5 40
-2 56 14 12 12 130 166 264 344 209 278 242 328 242 358 0 30 -33 80 -243 360
-134 179 -249 331 -255 337 -15 17 -66 24 -91 14z"/>
<path d="M2834 3342 c-18 -14 -117 -184 -492 -842 -11 -19 -46 -80 -77 -135
-100 -174 -105 -184 -105 -200 0 -34 30 -73 61 -80 65 -14 32 -64 557 855 11
19 56 99 101 177 44 78 81 149 81 158 0 67 -77 107 -126 67z"/>
<path d="M351 1181 c-42 -42 -34 -113 14 -131 15 -6 139 -10 283 -10 237 0
259 2 282 19 19 15 25 29 25 60 0 76 1 76 -310 79 -264 3 -275 2 -294 -17z"/>
<path d="M1088 1193 c-55 -14 -61 -111 -8 -138 44 -23 145 -20 170 5 41 41 33
112 -15 130 -26 10 -115 12 -147 3z"/>
</g>
</svg>
